<?xml version="1.0" encoding="utf-8"?>
<!-- Generator: Adobe Illustrator 23.0.0, SVG Export Plug-In . SVG Version: 6.00 Build 0)  -->
<svg version="1.1" id="Modo_de_aislamiento" xmlns="http://www.w3.org/2000/svg" xmlns:xlink="http://www.w3.org/1999/xlink"
	 x="0px" y="0px" viewBox="0 0 698.72 197.88" style="enable-background:new 0 0 698.72 197.88;" xml:space="preserve">
<style type="text/css">
	.st0{fill:url(#SVGID_1_);}
	.st1{fill:url(#SVGID_2_);}
	.st2{fill:url(#SVGID_3_);}
	.st3{fill:url(#SVGID_4_);}
	.st4{fill:url(#SVGID_5_);}
	.st5{fill:#FFFFFF;}
</style>
<g>
	<linearGradient id="SVGID_1_" gradientUnits="userSpaceOnUse" x1="57.8469" y1="20.3599" x2="178.9193" y2="20.3599">
		<stop  offset="0" style="stop-color:#86D0D9"/>
		<stop  offset="0.1763" style="stop-color:#74C3D6"/>
		<stop  offset="0.5288" style="stop-color:#46A2CD"/>
		<stop  offset="1" style="stop-color:#0070C0"/>
	</linearGradient>
	<path class="st0" d="M177.15,38.37C159.04,15.03,130.76,0,98.94,0C84.27,0,70.37,3.22,57.85,8.94c2.04-0.12,4.1-0.21,6.17-0.21
		c26.35,0,50.28,10.32,68.01,27.12c4.41-0.6,8.89-0.93,13.47-0.93c11.12,0,21.8,1.86,31.78,5.25c0.55,0.18,1.1,0.36,1.64,0.55
		C178.34,39.93,177.75,39.14,177.15,38.37z"/>
	<linearGradient id="SVGID_2_" gradientUnits="userSpaceOnUse" x1="105.1102" y1="116.294" x2="197.8806" y2="116.294">
		<stop  offset="0" style="stop-color:#86D0D9"/>
		<stop  offset="0.1763" style="stop-color:#74C3D6"/>
		<stop  offset="0.5288" style="stop-color:#46A2CD"/>
		<stop  offset="1" style="stop-color:#0070C0"/>
	</linearGradient>
	<path class="st1" d="M178.92,40.72c-0.54-0.19-1.09-0.37-1.64-0.55c-9.98-3.39-20.66-5.25-31.78-5.25c-4.57,0-9.06,0.33-13.47,0.93
		c17.03,16.14,28.33,38.26,30.51,63c0.26,2.91,0.41,5.84,0.41,8.81c0,39.98-23.72,74.39-57.85,90
		c51.77-3.19,92.77-46.16,92.77-98.73C197.88,77.17,190.83,57.06,178.92,40.72z"/>
	<linearGradient id="SVGID_3_" gradientUnits="userSpaceOnUse" x1="0.3629" y1="149.6046" x2="65.5217" y2="149.6046">
		<stop  offset="0" style="stop-color:#86D0D9"/>
		<stop  offset="0.1763" style="stop-color:#74C3D6"/>
		<stop  offset="0.5288" style="stop-color:#46A2CD"/>
		<stop  offset="1" style="stop-color:#0070C0"/>
	</linearGradient>
	<path class="st2" d="M0.36,107.13c3.22,39.32,29.42,72.13,65.16,84.95c-10.74-14.72-17.5-32.52-18.73-51.83
		C28.22,133.96,12.13,122.31,0.36,107.13z"/>
	<linearGradient id="SVGID_4_" gradientUnits="userSpaceOnUse" x1="46.787" y1="148.3697" x2="162.9589" y2="148.3697">
		<stop  offset="0" style="stop-color:#86D0D9"/>
		<stop  offset="0.1763" style="stop-color:#74C3D6"/>
		<stop  offset="0.5288" style="stop-color:#46A2CD"/>
		<stop  offset="1" style="stop-color:#0070C0"/>
	</linearGradient>
	<path class="st3" d="M162.96,107.67c0-2.97-0.15-5.9-0.41-8.81c-17.47,28-48.54,46.64-83.97,46.64c-11.12,0-21.8-1.86-31.78-5.25
		c1.23,19.31,8,37.1,18.73,51.83c10.44,3.74,21.69,5.8,33.42,5.8c2.07,0,4.13-0.09,6.17-0.21
		C139.24,182.06,162.96,147.65,162.96,107.67z"/>
	<linearGradient id="SVGID_5_" gradientUnits="userSpaceOnUse" x1="0" y1="74.4916" x2="132.0349" y2="74.4916">
		<stop  offset="0" style="stop-color:#86D0D9"/>
		<stop  offset="0.1763" style="stop-color:#74C3D6"/>
		<stop  offset="0.5288" style="stop-color:#46A2CD"/>
		<stop  offset="1" style="stop-color:#0070C0"/>
	</linearGradient>
	<path class="st4" d="M46.79,140.25c-0.14-2.12-0.23-4.24-0.23-6.39c0-50.08,37.21-91.44,85.47-98.01
		C114.3,19.05,90.37,8.73,64.02,8.73c-2.07,0-4.13,0.09-6.17,0.21C23.72,24.55,0,58.96,0,98.94c0,2.76,0.14,5.49,0.36,8.19
		C12.13,122.31,28.22,133.96,46.79,140.25z"/>
</g>
<g>
	<polygon class="st5" points="267.14,75.88 245.66,75.88 245.66,62.94 264.02,62.94 264.02,54.56 245.66,54.56 245.66,43.06 
		265.85,43.06 265.85,34.07 230.66,34.07 230.66,84.87 267.14,84.87 	"/>
	<path class="st5" d="M271.1,72.99c0.15,8.23,7.08,12.95,19.12,12.95c11.27,0,17.97-4.34,17.97-11.65c0-5.63-3.88-9.06-11.96-10.81
		l-4.72-0.99c-5.1-1.07-6.85-1.98-6.85-3.73c0-1.68,2.06-2.82,5.1-2.82c4.34,0,6.02,1.29,6.55,4.72h11.27
		c-0.23-2.67-0.99-4.49-2.82-6.78c-3.2-3.81-7.92-5.56-15.08-5.56c-11.04,0-17.82,4.42-17.82,11.58c0,3.12,1.6,6.09,4.04,7.62
		c1.9,1.14,5.41,2.44,8.23,3.05l4.57,0.99c4.11,0.84,4.11,0.84,5.18,1.45c0.91,0.53,1.52,1.45,1.52,2.36c0,1.9-1.98,2.97-5.33,2.97
		c-4.34,0-6.78-1.75-6.78-4.8c0-0.08,0-0.3,0.08-0.53H271.1z"/>
	<path class="st5" d="M341.16,84.34v-8.3c-2.21,0.69-4.19,0.99-5.79,0.99c-1.9,0-3.66-0.84-4.19-2.06
		c-0.53-1.07-0.76-2.74-0.76-5.41V57.53h10.13v-8.15h-10.13V37.27l-13.94,4.88v7.23h-5.48v8.15h5.48v14.62
		c0,9.37,3.96,13.56,12.79,13.56C333.09,85.71,338.04,85.1,341.16,84.34z"/>
	<path class="st5" d="M374.67,61.64V48.47c-10.21,0.08-13.4,1.98-15.99,9.52v-8.61h-12.49v35.49h13.94v-14.7
		c0-5.87,3.35-8.91,9.82-8.91C371.47,61.26,372.54,61.34,374.67,61.64z"/>
	<path class="st5" d="M400.26,63.01c-8.68,0-10.89,0.23-14.7,1.52c-4.95,1.6-7.77,5.48-7.77,10.59c0,6.85,5.03,10.81,13.71,10.81
		c6.78,0,11.04-2.29,13.56-7.39v6.32h13.02V63.32c0-5.48-0.84-8.45-3.05-10.66c-2.82-2.82-8.38-4.34-16.15-4.34
		c-7.31,0-12.49,1.29-15.54,3.88c-2.59,2.21-3.96,5.1-4.04,8.38h14.09c0-3.88,1.45-5.26,5.33-5.26c3.5,0,4.87,1.37,4.87,4.88v2.82
		H400.26z M403.38,72.23c-0.61,4.11-2.89,6.09-6.93,6.09c-3.73,0-6.02-1.6-6.02-4.19c0-2.89,1.98-4.57,6.4-5.18
		c1.9-0.3,2.59-0.3,6.78-0.3C403.61,70.32,403.61,70.86,403.38,72.23z"/>
	<path class="st5" d="M452.27,84.34v-8.3c-2.21,0.69-4.19,0.99-5.79,0.99c-1.9,0-3.66-0.84-4.19-2.06
		c-0.53-1.07-0.76-2.74-0.76-5.41V57.53h10.13v-8.15h-10.13V37.27l-13.94,4.88v7.23h-5.48v8.15h5.48v14.62
		c0,9.37,3.96,13.56,12.79,13.56C444.2,85.71,449.15,85.1,452.27,84.34z"/>
	<path class="st5" d="M475.88,85.94c7.24,0,13.18-1.98,16.75-5.63c1.68-1.68,2.59-3.2,3.35-5.79h-13.48
		c-1.14,2.67-3.12,3.88-6.25,3.88c-4.57,0-6.7-2.51-6.78-8.07h27.11v-2.13c0-6.47-1.52-11.2-4.57-14.32
		c-3.5-3.5-9.21-5.56-15.84-5.56c-12.95,0-20.79,7.01-20.79,18.58C455.4,78.85,463.01,85.94,475.88,85.94z M476.26,55.93
		c3.58,0,6.4,2.74,6.47,6.32v0.91v0.15h-13.1C469.64,58.82,472.23,55.93,476.26,55.93z"/>
	<path class="st5" d="M542.29,92.26c0-4.65-2.13-8.45-5.56-10.13c-2.21-0.99-4.87-1.52-9.21-1.75l-9.14-0.53
		c-4.87-0.23-6.7-1.07-6.7-2.97c0-1.29,1.14-2.36,3.35-3.12c2.59,0.3,3.88,0.38,5.41,0.38c12.26,0,18.73-4.49,18.73-12.87
		c0-2.06-0.38-3.58-1.37-4.95h5.1v-6.93h-15.16c-3.58-0.69-5.41-0.91-8.45-0.91c-11.58,0-18.51,4.8-18.51,12.87
		c0,3.2,1.29,6.17,3.58,8.3c1.52,1.45,2.89,2.21,5.86,3.2c-2.36,1.07-3.35,1.67-4.49,2.67c-2.06,1.75-3.28,4.19-3.28,6.32
		c0,2.44,1.07,4.19,3.73,6.09c-4.04,2.59-6.09,5.48-6.09,8.76c0,2.29,1.22,4.57,3.43,6.4c0.97,0.8,2.22,1.47,3.73,2.01
		c-0.25,0.75-0.38,1.58-0.38,2.49c0,4.34,3.12,7.01,8.15,7.01s7.84-2.51,7.84-7.01c0-0.29-0.01-0.58-0.04-0.85
		C535.64,106.07,542.29,101.11,542.29,92.26z M520.05,54.79c4.34,0,6.24,1.98,6.24,6.55c0,4.26-2.13,6.47-6.24,6.47
		c-4.19,0-6.32-2.13-6.32-6.32C513.73,56.92,515.79,54.79,520.05,54.79z M510.69,89.67c2.06,0.84,2.21,0.84,6.63,1.07l8.15,0.38
		c3.58,0.15,5.48,1.37,5.48,3.5c0,2.74-4.19,4.42-11.19,4.42c-6.93,0-10.97-1.98-10.97-5.48C508.78,91.95,509.39,90.74,510.69,89.67
		z"/>
	<rect x="546.02" y="49.38" class="st5" width="13.94" height="35.49"/>
	<path class="st5" d="M553.18,45.12c5.03,0,7.84-2.51,7.84-7.01s-2.97-7.16-8-7.16c-4.95,0-8,2.74-8,7.16
		C545.03,42.45,548.15,45.12,553.18,45.12z"/>
	<path class="st5" d="M588.9,63.01c-8.68,0-10.89,0.23-14.7,1.52c-4.95,1.6-7.77,5.48-7.77,10.59c0,6.85,5.03,10.81,13.71,10.81
		c6.78,0,11.04-2.29,13.56-7.39v6.32h13.02V63.32c0-5.48-0.84-8.45-3.05-10.66c-2.82-2.82-8.38-4.34-16.15-4.34
		c-7.31,0-12.49,1.29-15.54,3.88c-2.59,2.21-3.96,5.1-4.04,8.38h14.09c0-3.88,1.45-5.26,5.33-5.26c3.5,0,4.87,1.37,4.87,4.88v2.82
		H588.9z M592.02,72.23c-0.61,4.11-2.89,6.09-6.93,6.09c-3.73,0-6.02-1.6-6.02-4.19c0-2.89,1.98-4.57,6.4-5.18
		c1.9-0.3,2.59-0.3,6.78-0.3C592.25,70.32,592.25,70.86,592.02,72.23z"/>
	<path class="st5" d="M255.64,111.38c5.86,0,9.44,3.88,10.05,10.97h15.69c-0.15-5.79-1.9-9.98-5.64-13.63
		c-3.96-3.96-11.5-6.47-19.27-6.47c-8.45,0-16.15,2.74-20.71,7.39c-4.42,4.57-6.93,11.5-6.93,19.42c0,17.21,9.67,26.58,27.42,26.58
		c9.98,0,18.05-3.5,22.24-9.6c1.9-2.82,2.67-5.41,2.89-10.05h-15.69c-0.3,2.82-0.61,3.96-1.37,5.56c-1.52,3.12-4.72,4.95-8.91,4.95
		c-7.39,0-11.12-5.71-11.12-17.21C244.29,117.4,248.1,111.38,255.64,111.38z"/>
	<path class="st5" d="M300.8,127.45v-8.61h-12.49v35.49h13.94v-14.7c0-5.86,3.35-8.91,9.82-8.91c1.52,0,2.59,0.08,4.72,0.38v-13.17
		C306.59,118.01,303.39,119.91,300.8,127.45z"/>
	<path class="st5" d="M341.09,117.78c-12.95,0-20.79,7.01-20.79,18.58c0,11.96,7.62,19.04,20.49,19.04c7.23,0,13.18-1.98,16.75-5.64
		c1.68-1.67,2.59-3.2,3.35-5.79h-13.48c-1.14,2.67-3.12,3.88-6.25,3.88c-4.57,0-6.7-2.51-6.78-8.07h27.11v-2.13
		c0-6.47-1.52-11.2-4.57-14.32C353.42,119.83,347.71,117.78,341.09,117.78z M347.64,132.63v0.15h-13.1c0-4.49,2.59-7.39,6.63-7.39
		c3.58,0,6.4,2.74,6.47,6.32V132.63z"/>
	<path class="st5" d="M386.7,125.93c3.43,0,5.56,2.59,5.48,6.7h14.24c-0.15-8.99-7.69-14.62-19.5-14.62
		c-13.4,0-20.87,6.63-20.87,18.43c0,11.96,7.54,18.73,20.94,18.73c8.61,0,14.39-2.21,17.14-6.55c1.45-2.28,1.98-4.11,2.28-7.92
		h-14.24c-0.15,4.19-2.21,6.55-5.48,6.55c-4.19,0-6.09-3.28-6.09-10.36C380.61,129.51,382.59,125.93,386.7,125.93z"/>
	<rect x="412.52" y="118.85" class="st5" width="13.94" height="35.49"/>
	<path class="st5" d="M419.53,100.41c-4.95,0-8,2.74-8,7.16c0,4.34,3.12,7.01,8.15,7.01s7.84-2.51,7.84-7.01
		S424.55,100.41,419.53,100.41z"/>
	<path class="st5" d="M486.32,118.01c-6.93,0-10.89,2.13-12.87,6.85c-1.14-4.65-5.03-6.85-12.03-6.85c-6.85,0-9.82,1.75-13.56,8.22
		v-7.39h-12.87v35.49h13.71V134c0-4.8,1.98-7.16,6.17-7.16c3.88,0,5.71,2.13,5.71,6.85v20.64h13.71V134c0-4.87,1.9-7.16,6.02-7.16
		c4.04,0,5.79,2.06,5.79,6.7v20.79h13.71v-23.76c0-4.57-0.76-7.01-2.82-9.06C494.7,119.23,491.04,118.01,486.32,118.01z"/>
	<rect x="507.87" y="118.85" class="st5" width="13.94" height="35.49"/>
	<path class="st5" d="M549.15,117.78c-12.95,0-20.79,7.01-20.79,18.58c0,11.96,7.62,19.04,20.49,19.04c7.24,0,13.18-1.98,16.75-5.64
		c1.68-1.67,2.59-3.2,3.35-5.79h-13.48c-1.14,2.67-3.12,3.88-6.25,3.88c-4.57,0-6.7-2.51-6.78-8.07h27.11v-2.13
		c0-6.47-1.52-11.2-4.57-14.32C561.48,119.83,555.77,117.78,549.15,117.78z M555.7,132.63v0.15h-13.1c0-4.49,2.59-7.39,6.63-7.39
		c3.58,0,6.4,2.74,6.47,6.32V132.63z"/>
	<path class="st5" d="M603.22,118.01c-7.08,0-11.8,2.67-14.09,8.07v-7.23h-13.02v35.49h13.94v-17.67c0-3.43,0.3-5.33,1.22-6.78
		c0.99-1.75,3.27-2.89,5.79-2.89c4.26,0,6.17,2.44,6.17,7.69v19.65h13.94v-21.4c0-5.48-0.53-7.92-2.36-10.21
		C612.43,119.68,608.4,118.01,603.22,118.01z"/>
	<path class="st5" d="M641.45,144.43c-0.53-1.07-0.76-2.74-0.76-5.41v-12.03h10.13v-8.15h-10.13v-12.11l-13.94,4.87v7.24h-5.48v8.15
		h5.48v14.62c0,9.37,3.96,13.56,12.79,13.56c3.81,0,8.76-0.61,11.88-1.37v-8.3c-2.21,0.69-4.19,0.99-5.79,0.99
		C643.73,146.49,641.98,145.65,641.45,144.43z"/>
	<path class="st5" d="M693.39,123.03c-3.81-3.43-9.67-5.33-16.45-5.33c-14.55,0-22.47,6.78-22.47,19.12
		c0,11.8,8.15,18.66,22.16,18.66c13.71,0,22.08-7.01,22.08-18.51C698.72,130.73,697.04,126.38,693.39,123.03z M682.8,143.98
		c-0.99,2.06-3.28,3.28-6.25,3.28c-2.89,0-5.1-1.14-6.09-3.12c-0.91-1.75-1.52-4.8-1.52-7.46c0-2.74,0.61-5.79,1.52-7.62
		c0.99-1.98,3.2-3.12,6.09-3.12s5.18,1.14,6.17,3.2c0.91,1.75,1.45,4.72,1.45,7.54C684.17,139.33,683.64,142.23,682.8,143.98z"/>
</g>
</svg>
