<?xml version="1.0" encoding="utf-8"?>
<!-- Generator: Adobe Illustrator 22.0.1, SVG Export Plug-In . SVG Version: 6.00 Build 0)  -->
<svg version="1.1" id="Modo_de_aislamiento" xmlns="http://www.w3.org/2000/svg" xmlns:xlink="http://www.w3.org/1999/xlink"
	 x="0px" y="0px" viewBox="0 0 698.7 197.9" style="enable-background:new 0 0 698.7 197.9;" xml:space="preserve">
<style type="text/css">
	.st0{fill:url(#SVGID_1_);}
	.st1{fill:url(#SVGID_2_);}
	.st2{fill:url(#SVGID_3_);}
	.st3{fill:url(#SVGID_4_);}
	.st4{fill:url(#SVGID_5_);}
	.st5{fill:#5C5C5C;}
</style>
<g>
	
		<linearGradient id="SVGID_1_" gradientUnits="userSpaceOnUse" x1="57.85" y1="179.64" x2="178.92" y2="179.64" gradientTransform="matrix(1 0 0 -1 0 200)">
		<stop  offset="0" style="stop-color:#86D0D9"/>
		<stop  offset="0.1763" style="stop-color:#74C3D6"/>
		<stop  offset="0.5288" style="stop-color:#46A2CD"/>
		<stop  offset="1" style="stop-color:#0070C0"/>
	</linearGradient>
	<path class="st0" d="M177.1,38.4C159,15,130.8,0,98.9,0C84.3,0,70.4,3.2,57.8,8.9c2-0.1,4.1-0.2,6.2-0.2c26.3,0,50.3,10.3,68,27.1
		c4.4-0.6,8.9-0.9,13.5-0.9c11.1,0,21.8,1.9,31.8,5.3c0.6,0.2,1.1,0.4,1.6,0.5C178.3,39.9,177.8,39.1,177.1,38.4z"/>
	
		<linearGradient id="SVGID_2_" gradientUnits="userSpaceOnUse" x1="105.1" y1="83.71" x2="197.87" y2="83.71" gradientTransform="matrix(1 0 0 -1 0 200)">
		<stop  offset="0" style="stop-color:#86D0D9"/>
		<stop  offset="0.1763" style="stop-color:#74C3D6"/>
		<stop  offset="0.5288" style="stop-color:#46A2CD"/>
		<stop  offset="1" style="stop-color:#0070C0"/>
	</linearGradient>
	<path class="st1" d="M178.9,40.7c-0.5-0.2-1.1-0.4-1.6-0.5c-10-3.4-20.7-5.3-31.8-5.3c-4.6,0-9.1,0.3-13.5,0.9
		c17,16.1,28.3,38.3,30.5,63c0.3,2.9,0.4,5.8,0.4,8.8c0,40-23.7,74.4-57.8,90c51.8-3.2,92.8-46.2,92.8-98.7
		C197.9,77.2,190.8,57.1,178.9,40.7z"/>
	
		<linearGradient id="SVGID_3_" gradientUnits="userSpaceOnUse" x1="0.36" y1="50.395" x2="65.52" y2="50.395" gradientTransform="matrix(1 0 0 -1 0 200)">
		<stop  offset="0" style="stop-color:#86D0D9"/>
		<stop  offset="0.1763" style="stop-color:#74C3D6"/>
		<stop  offset="0.5288" style="stop-color:#46A2CD"/>
		<stop  offset="1" style="stop-color:#0070C0"/>
	</linearGradient>
	<path class="st2" d="M0.4,107.1c3.2,39.3,29.4,72.1,65.2,84.9c-10.7-14.7-17.5-32.5-18.7-51.8C28.2,134,12.1,122.3,0.4,107.1z"/>
	
		<linearGradient id="SVGID_4_" gradientUnits="userSpaceOnUse" x1="46.8" y1="51.63" x2="162.96" y2="51.63" gradientTransform="matrix(1 0 0 -1 0 200)">
		<stop  offset="0" style="stop-color:#86D0D9"/>
		<stop  offset="0.1763" style="stop-color:#74C3D6"/>
		<stop  offset="0.5288" style="stop-color:#46A2CD"/>
		<stop  offset="1" style="stop-color:#0070C0"/>
	</linearGradient>
	<path class="st3" d="M163,107.7c0-3-0.1-5.9-0.4-8.8c-17.5,28-48.5,46.6-84,46.6c-11.1,0-21.8-1.9-31.8-5.3
		c1.2,19.3,8,37.1,18.7,51.8c10.4,3.7,21.7,5.8,33.4,5.8c2.1,0,4.1-0.1,6.2-0.2C139.2,182.1,163,147.6,163,107.7z"/>
	
		<linearGradient id="SVGID_5_" gradientUnits="userSpaceOnUse" x1="0" y1="125.51" x2="132.03" y2="125.51" gradientTransform="matrix(1 0 0 -1 0 200)">
		<stop  offset="0" style="stop-color:#86D0D9"/>
		<stop  offset="0.1763" style="stop-color:#74C3D6"/>
		<stop  offset="0.5288" style="stop-color:#46A2CD"/>
		<stop  offset="1" style="stop-color:#0070C0"/>
	</linearGradient>
	<path class="st4" d="M46.8,140.3c-0.1-2.1-0.2-4.2-0.2-6.4c0-50.1,37.2-91.4,85.5-98C114.3,19,90.4,8.7,64,8.7
		c-2.1,0-4.1,0.1-6.2,0.2C23.7,24.5,0,59,0,98.9c0,2.8,0.1,5.5,0.4,8.2C12.1,122.3,28.2,134,46.8,140.3z"/>
</g>
<g>
	<polygon class="st5" points="267.1,75.9 245.7,75.9 245.7,62.9 264,62.9 264,54.6 245.7,54.6 245.7,43.1 265.9,43.1 265.9,34.1 
		230.7,34.1 230.7,84.9 267.1,84.9 	"/>
	<path class="st5" d="M271.1,73c0.1,8.2,7.1,12.9,19.1,12.9c11.3,0,18-4.3,18-11.7c0-5.6-3.9-9.1-12-10.8l-4.7-1
		c-5.1-1.1-6.9-2-6.9-3.7c0-1.7,2.1-2.8,5.1-2.8c4.3,0,6,1.3,6.5,4.7h11.3c-0.2-2.7-1-4.5-2.8-6.8c-3.2-3.8-7.9-5.6-15.1-5.6
		c-11,0-17.8,4.4-17.8,11.6c0,3.1,1.6,6.1,4,7.6c1.9,1.1,5.4,2.4,8.2,3.1l4.6,1c4.1,0.8,4.1,0.8,5.2,1.4c0.9,0.5,1.5,1.4,1.5,2.4
		c0,1.9-2,3-5.3,3c-4.3,0-6.8-1.8-6.8-4.8c0-0.1,0-0.3,0.1-0.5L271.1,73L271.1,73z"/>
	<path class="st5" d="M341.2,84.3V76c-2.2,0.7-4.2,1-5.8,1c-1.9,0-3.7-0.8-4.2-2.1c-0.5-1.1-0.8-2.7-0.8-5.4v-12h10.1v-8.2h-10.1
		V37.3l-13.9,4.9v7.2H311v8.1h5.5v14.6c0,9.4,4,13.6,12.8,13.6C333.1,85.7,338,85.1,341.2,84.3z"/>
	<path class="st5" d="M374.7,61.6V48.5c-10.2,0.1-13.4,2-16,9.5v-8.6h-12.5v35.5h13.9V70.2c0-5.9,3.4-8.9,9.8-8.9
		C371.5,61.3,372.5,61.3,374.7,61.6z"/>
	<path class="st5" d="M400.3,63c-8.7,0-10.9,0.2-14.7,1.5c-5,1.6-7.8,5.5-7.8,10.6c0,6.8,5,10.8,13.7,10.8c6.8,0,11-2.3,13.6-7.4
		v6.3h13V63.3c0-5.5-0.8-8.5-3-10.7c-2.8-2.8-8.4-4.3-16.1-4.3c-7.3,0-12.5,1.3-15.5,3.9c-2.6,2.2-4,5.1-4,8.4h14.1
		c0-3.9,1.5-5.3,5.3-5.3c3.5,0,4.9,1.4,4.9,4.9V63L400.3,63L400.3,63z M403.4,72.2c-0.6,4.1-2.9,6.1-6.9,6.1c-3.7,0-6-1.6-6-4.2
		c0-2.9,2-4.6,6.4-5.2c1.9-0.3,2.6-0.3,6.8-0.3C403.6,70.3,403.6,70.9,403.4,72.2z"/>
	<path class="st5" d="M452.3,84.3V76c-2.2,0.7-4.2,1-5.8,1c-1.9,0-3.7-0.8-4.2-2.1c-0.5-1.1-0.8-2.7-0.8-5.4v-12h10.1v-8.2h-10.1
		V37.3l-13.9,4.9v7.2h-5.5v8.1h5.5v14.6c0,9.4,4,13.6,12.8,13.6C444.2,85.7,449.1,85.1,452.3,84.3z"/>
	<path class="st5" d="M475.9,85.9c7.2,0,13.2-2,16.8-5.6c1.7-1.7,2.6-3.2,3.4-5.8h-13.5c-1.1,2.7-3.1,3.9-6.3,3.9
		c-4.6,0-6.7-2.5-6.8-8.1h27.1v-2.1c0-6.5-1.5-11.2-4.6-14.3c-3.5-3.5-9.2-5.6-15.8-5.6c-13,0-20.8,7-20.8,18.6
		C455.4,78.8,463,85.9,475.9,85.9z M476.3,55.9c3.6,0,6.4,2.7,6.5,6.3v0.9v0.2h-13.1C469.6,58.8,472.2,55.9,476.3,55.9z"/>
	<path class="st5" d="M542.3,92.3c0-4.7-2.1-8.4-5.6-10.1c-2.2-1-4.9-1.5-9.2-1.8l-9.1-0.5c-4.9-0.2-6.7-1.1-6.7-3
		c0-1.3,1.1-2.4,3.3-3.1c2.6,0.3,3.9,0.4,5.4,0.4c12.3,0,18.7-4.5,18.7-12.9c0-2.1-0.4-3.6-1.4-5h5.1v-6.9h-15.2
		c-3.6-0.7-5.4-0.9-8.5-0.9c-11.6,0-18.5,4.8-18.5,12.9c0,3.2,1.3,6.2,3.6,8.3c1.5,1.4,2.9,2.2,5.9,3.2c-2.4,1.1-3.4,1.7-4.5,2.7
		c-2.1,1.8-3.3,4.2-3.3,6.3c0,2.4,1.1,4.2,3.7,6.1c-4,2.6-6.1,5.5-6.1,8.8c0,2.3,1.2,4.6,3.4,6.4c1,0.8,2.2,1.5,3.7,2
		c-0.3,0.8-0.4,1.6-0.4,2.5c0,4.3,3.1,7,8.1,7c5,0,7.8-2.5,7.8-7c0-0.3,0-0.6,0-0.8C535.6,106.1,542.3,101.1,542.3,92.3z M520,54.8
		c4.3,0,6.2,2,6.2,6.5c0,4.3-2.1,6.5-6.2,6.5c-4.2,0-6.3-2.1-6.3-6.3C513.7,56.9,515.8,54.8,520,54.8z M510.7,89.7
		c2.1,0.8,2.2,0.8,6.6,1.1l8.2,0.4c3.6,0.2,5.5,1.4,5.5,3.5c0,2.7-4.2,4.4-11.2,4.4c-6.9,0-11-2-11-5.5
		C508.8,91.9,509.4,90.7,510.7,89.7z"/>
	<rect x="546" y="49.4" class="st5" width="13.9" height="35.5"/>
	<path class="st5" d="M553.2,45.1c5,0,7.8-2.5,7.8-7s-3-7.2-8-7.2c-5,0-8,2.7-8,7.2C545,42.5,548.2,45.1,553.2,45.1z"/>
	<path class="st5" d="M588.9,63c-8.7,0-10.9,0.2-14.7,1.5c-5,1.6-7.8,5.5-7.8,10.6c0,6.8,5,10.8,13.7,10.8c6.8,0,11-2.3,13.6-7.4
		v6.3h13V63.3c0-5.5-0.8-8.5-3-10.7c-2.8-2.8-8.4-4.3-16.2-4.3c-7.3,0-12.5,1.3-15.5,3.9c-2.6,2.2-4,5.1-4,8.4H582
		c0-3.9,1.5-5.3,5.3-5.3c3.5,0,4.9,1.4,4.9,4.9V63L588.9,63L588.9,63z M592,72.2c-0.6,4.1-2.9,6.1-6.9,6.1c-3.7,0-6-1.6-6-4.2
		c0-2.9,2-4.6,6.4-5.2c1.9-0.3,2.6-0.3,6.8-0.3C592.3,70.3,592.3,70.9,592,72.2z"/>
	<path class="st5" d="M255.6,111.4c5.9,0,9.4,3.9,10.1,11h15.7c-0.1-5.8-1.9-10-5.6-13.6c-4-4-11.5-6.5-19.3-6.5
		c-8.4,0-16.1,2.7-20.7,7.4c-4.4,4.6-6.9,11.5-6.9,19.4c0,17.2,9.7,26.6,27.4,26.6c10,0,18-3.5,22.2-9.6c1.9-2.8,2.7-5.4,2.9-10.1
		h-15.7c-0.3,2.8-0.6,4-1.4,5.6c-1.5,3.1-4.7,4.9-8.9,4.9c-7.4,0-11.1-5.7-11.1-17.2C244.3,117.4,248.1,111.4,255.6,111.4z"/>
	<path class="st5" d="M300.8,127.4v-8.6h-12.5v35.5h13.9v-14.7c0-5.9,3.4-8.9,9.8-8.9c1.5,0,2.6,0.1,4.7,0.4v-13.2
		C306.6,118,303.4,119.9,300.8,127.4z"/>
	<path class="st5" d="M341.1,117.8c-13,0-20.8,7-20.8,18.6c0,12,7.6,19,20.5,19c7.2,0,13.2-2,16.8-5.6c1.7-1.7,2.6-3.2,3.4-5.8
		h-13.5c-1.1,2.7-3.1,3.9-6.3,3.9c-4.6,0-6.7-2.5-6.8-8.1h27.1v-2.1c0-6.5-1.5-11.2-4.6-14.3C353.4,119.8,347.7,117.8,341.1,117.8z
		 M347.6,132.6v0.1h-13.1c0-4.5,2.6-7.4,6.6-7.4c3.6,0,6.4,2.7,6.5,6.3V132.6z"/>
	<path class="st5" d="M386.7,125.9c3.4,0,5.6,2.6,5.5,6.7h14.2c-0.1-9-7.7-14.6-19.5-14.6c-13.4,0-20.9,6.6-20.9,18.4
		c0,12,7.5,18.7,20.9,18.7c8.6,0,14.4-2.2,17.1-6.6c1.5-2.3,2-4.1,2.3-7.9h-14.2c-0.1,4.2-2.2,6.6-5.5,6.6c-4.2,0-6.1-3.3-6.1-10.4
		C380.6,129.5,382.6,125.9,386.7,125.9z"/>
	<rect x="412.5" y="118.8" class="st5" width="13.9" height="35.5"/>
	<path class="st5" d="M419.5,100.4c-5,0-8,2.7-8,7.2c0,4.3,3.1,7,8.1,7s7.8-2.5,7.8-7S424.5,100.4,419.5,100.4z"/>
	<path class="st5" d="M486.3,118c-6.9,0-10.9,2.1-12.9,6.8c-1.1-4.7-5-6.8-12-6.8c-6.9,0-9.8,1.8-13.6,8.2v-7.4H435v35.5h13.7V134
		c0-4.8,2-7.2,6.2-7.2c3.9,0,5.7,2.1,5.7,6.9v20.6h13.7V134c0-4.9,1.9-7.2,6-7.2c4,0,5.8,2.1,5.8,6.7v20.8h13.7v-23.8
		c0-4.6-0.8-7-2.8-9.1C494.7,119.2,491,118,486.3,118z"/>
	<rect x="507.9" y="118.8" class="st5" width="13.9" height="35.5"/>
	<path class="st5" d="M549.2,117.8c-13,0-20.8,7-20.8,18.6c0,12,7.6,19,20.5,19c7.2,0,13.2-2,16.8-5.6c1.7-1.7,2.6-3.2,3.3-5.8
		h-13.5c-1.1,2.7-3.1,3.9-6.3,3.9c-4.6,0-6.7-2.5-6.8-8.1h27.1v-2.1c0-6.5-1.5-11.2-4.6-14.3C561.5,119.8,555.8,117.8,549.2,117.8z
		 M555.7,132.6v0.1h-13.1c0-4.5,2.6-7.4,6.6-7.4c3.6,0,6.4,2.7,6.5,6.3V132.6z"/>
	<path class="st5" d="M603.2,118c-7.1,0-11.8,2.7-14.1,8.1v-7.2h-13v35.5H590v-17.7c0-3.4,0.3-5.3,1.2-6.8c1-1.8,3.3-2.9,5.8-2.9
		c4.3,0,6.2,2.4,6.2,7.7v19.6h13.9v-21.4c0-5.5-0.5-7.9-2.4-10.2C612.4,119.7,608.4,118,603.2,118z"/>
	<path class="st5" d="M641.5,144.4c-0.5-1.1-0.8-2.7-0.8-5.4v-12h10.1v-8.2h-10.1v-12.1l-13.9,4.9v7.2h-5.5v8.2h5.5v14.6
		c0,9.4,4,13.6,12.8,13.6c3.8,0,8.8-0.6,11.9-1.4v-8.3c-2.2,0.7-4.2,1-5.8,1C643.7,146.5,642,145.6,641.5,144.4z"/>
	<path class="st5" d="M693.4,123c-3.8-3.4-9.7-5.3-16.5-5.3c-14.5,0-22.5,6.8-22.5,19.1c0,11.8,8.2,18.7,22.2,18.7
		c13.7,0,22.1-7,22.1-18.5C698.7,130.7,697,126.4,693.4,123z M682.8,144c-1,2.1-3.3,3.3-6.3,3.3c-2.9,0-5.1-1.1-6.1-3.1
		c-0.9-1.8-1.5-4.8-1.5-7.5c0-2.7,0.6-5.8,1.5-7.6c1-2,3.2-3.1,6.1-3.1s5.2,1.1,6.2,3.2c0.9,1.8,1.5,4.7,1.5,7.5
		C684.2,139.3,683.6,142.2,682.8,144z"/>
</g>
</svg>
